<?xml version="1.0" encoding="UTF-8"?>
<svg style="content-visibility:visible;height:100%;transform:translate3d(0px, 0px, 0px);width:100%" viewBox="0 0 450 450" xmlns="http://www.w3.org/2000/svg">
<style>
  <![CDATA[
      rect.pulse-bulb {
        animation: pulse 2s cubic-bezier(0.4, 0, 0.6, 1) infinite;
      }

      @keyframes pulse {
        0%, 100% {
          opacity: 1;
        }
        50% {
          opacity: .5;
        }
      }
  ]]>
</style>
<defs>
<clipPath id="b">
<rect width="450" height="450"/>
</clipPath>
<mask id="a">
<path d="m228 198c-32.033 0-58 25.967-58 58 0 32.033 25.967 58 58 58 32.033 0 58-25.967 58-58 0-32.033-25.967-58-58-58" fill="#fff" fill-opacity=".74"/>
</mask>
</defs>
<g clip-path="url(#b)">
<g transform="matrix(.81481 0 0 .81481 38.668 40.168)" display="block" mask="url(#a)" style="mix-blend-mode:screen">
<rect width="450" height="450" fill="#fff" class="pulse-bulb"/>
</g>
<g transform="translate(187.85 -.25)" display="block">
<g transform="translate(41.906 227.73)">
<path d="m-2.488-13.051c0 22.488 2.079 41.594 4.976 48.59-2.094-11.225-3.443-28.807-3.443-48.59 0-19.781-1.533-22.488-1.533 0z" fill="#fff"/>
</g>
<g transform="translate(32.404 227.73)">
<path d="m2.488-13.051c0 22.488-2.08 41.594-4.976 48.59 2.094-11.225 3.443-28.807 3.443-48.59 0-19.781 1.533-22.488 1.533 0z" fill="#fff"/>
</g>
<g transform="translate(37.155 226.36)">
<path d="m0 60.148c-20.35 0-36.905-16.555-36.905-36.903 0-9.024 3.294-17.708 9.275-24.455 3.473-3.918 7.211-10.43 7.211-15.466v-23.053c0-11.259 9.16-20.419 20.419-20.419s20.419 9.16 20.419 20.419v23.053c0 5.037 3.738 11.549 7.211 15.466 5.981 6.747 9.275 15.431 9.275 24.455 0 20.348-16.555 36.903-36.905 36.903zm0-117.3c-9.605 0-17.419 7.814-17.419 17.419v23.053c0 5.849-4.001 12.982-7.966 17.456-5.494 6.198-8.52 14.175-8.52 22.465 0 18.694 15.21 33.903 33.905 33.903s33.905-15.209 33.905-33.903c0-8.29-3.025-16.267-8.52-22.465-3.965-4.473-7.966-11.605-7.966-17.456v-23.053c0-9.605-7.814-17.419-17.419-17.419z" fill="#fff"/>
</g>
<g transform="translate(18.593 244.91)">
<path d="m-3.404 10.816c-0.428 0-0.863-0.055-1.297-0.171-2.667-0.715-4.25-3.456-3.536-6.124 1.398-5.218 4.262-9.884 8.283-13.492 2.056-1.845 5.217-1.675 7.061 0.381 1.844 2.054 1.674 5.217-0.382 7.06-2.574 2.311-4.407 5.298-5.302 8.639-0.598 2.233-2.619 3.707-4.827 3.707z" fill="#fff"/>
</g>
<g transform="translate(55.718 267.72)">
<path d="m-3.384 10.806c-1.371 0-2.735-0.56-3.724-1.66-1.843-2.055-1.672-5.217 0.382-7.061 2.573-2.309 4.407-5.299 5.303-8.64 0.715-2.668 3.457-4.25 6.124-3.535 2.667 0.714 4.25 3.457 3.535 6.124-1.398 5.219-4.263 9.885-8.282 13.493-0.955 0.857-2.15 1.279-3.338 1.279z" fill="#fff"/>
</g>
<g transform="translate(37.155 80.493)">
<path d="m2.269 80.243h-4.538v-160.49h4.538v160.49z" fill="#333"/>
</g>
<g transform="translate(38.289 80.493)">
<path d="m1.135 80.243h-2.27v-160.49h2.27v160.49z"/>
</g>
<g transform="translate(37.155 187.21)">
<path d="m0-27.472c-13.678 0-24.767 11.088-24.767 24.767v30.177h49.534v-30.177c0-13.679-11.088-24.767-24.767-24.767z" fill="#333"/>
</g>
<g transform="translate(49.538 187.21)">
<path d="m-12.383-27.472c9.217 0 18.766 11.088 18.766 24.767v30.177h6v-30.177c0-13.679-11.087-24.767-24.766-24.767z"/>
</g>
<g transform="translate(30.963 187.21)">
<path d="m6.192-27.472c-4.608 0-9.384 11.088-9.384 24.767v30.177h-3v-30.177c0-13.679 5.545-24.767 12.384-24.767z" fill="#fff"/>
</g>
</g>
<g transform="translate(187.85 -.57899)" display="block">
<g transform="translate(37.155 226.51)">
<path d="m0 60.148c-20.35 0-36.905-16.555-36.905-36.903 0-9.024 3.294-17.709 9.275-24.456 3.473-3.918 7.211-10.43 7.211-15.466v-23.052c0-11.26 9.159-20.419 20.419-20.419s20.419 9.159 20.419 20.419v23.052c0 5.037 3.738 11.549 7.212 15.466 5.98 6.747 9.274 15.432 9.274 24.456 0 20.348-16.555 36.903-36.905 36.903z" fill="#fff"/>
</g>
<g transform="translate(41.905 227.53)">
<path d="m-2.488-13.051c0 22.488 2.079 41.594 4.976 48.59-2.094-11.225-3.444-28.807-3.444-48.59 0-19.781-1.532-22.489-1.532 0z" fill="#fff"/>
</g>
<g transform="translate(32.404 227.53)">
<path d="m2.488-13.051c0 22.488-2.079 41.594-4.976 48.59 2.094-11.225 3.443-28.807 3.443-48.59 0-19.781 1.533-22.489 1.533 0z" fill="#fff"/>
</g>
<g transform="translate(18.593 244.72)">
<path d="m-3.404 10.816c-0.428 0-0.863-0.055-1.297-0.171-2.667-0.715-4.25-3.456-3.536-6.124 1.398-5.218 4.262-9.884 8.283-13.492 2.055-1.845 5.217-1.675 7.061 0.381 1.844 2.054 1.674 5.217-0.382 7.06-2.574 2.311-4.407 5.298-5.302 8.639-0.599 2.233-2.619 3.707-4.827 3.707z" fill="#fff"/>
</g>
<g transform="translate(55.718 267.53)">
<path d="m-3.385 10.805c-1.37 0-2.734-0.559-3.723-1.659-1.843-2.055-1.673-5.217 0.382-7.061 2.573-2.309 4.407-5.299 5.303-8.64 0.715-2.668 3.457-4.251 6.124-3.536 2.667 0.714 4.25 3.458 3.535 6.125-1.398 5.219-4.263 9.884-8.282 13.492-0.955 0.857-2.15 1.279-3.339 1.279z" fill="#fff"/>
</g>
<g transform="translate(37.155 80.559)">
<path d="m2.269 79.98h-4.538v-160.29h4.538v160.29z" fill="#333"/>
</g>
<g transform="translate(38.289 80.559)">
<path d="m1.135 79.98h-2.27v-160.29h2.27v160.29z"/>
</g>
<g transform="translate(37.155 187.01)">
<path d="m0-27.472c-13.678 0-24.767 11.088-24.767 24.767v30.177h49.534v-30.177c0-13.679-11.089-24.767-24.767-24.767z" fill="#333"/>
</g>
<g transform="translate(49.538 187.01)">
<path d="m-12.383-27.472c9.217 0 18.766 11.088 18.766 24.767v30.177h6v-30.177c0-13.679-11.088-24.767-24.766-24.767z"/>
</g>
<g transform="translate(30.963 187.01)">
<path d="m6.192-27.472c-4.608 0-9.384 11.088-9.384 24.767v30.177h-3v-30.177c0-13.679 5.545-24.767 12.384-24.767z" fill="#fff"/>
</g>
</g>
</g>
</svg>
